<?xml version="1.0" encoding="UTF-8" standalone="no"?>
<!-- Created with Inkscape (http://www.inkscape.org/) -->

<svg
   version="1.1"
   id="svg1"
   width="1024"
   height="1024"
   viewBox="0 0 1024 1024"
   sodipodi:docname="icon.svg"
   inkscape:version="1.4 (e7c3feb100, 2024-10-09)"
   xmlns:inkscape="http://www.inkscape.org/namespaces/inkscape"
   xmlns:sodipodi="http://sodipodi.sourceforge.net/DTD/sodipodi-0.dtd"
   xmlns="http://www.w3.org/2000/svg"
   xmlns:svg="http://www.w3.org/2000/svg">
  <defs
     id="defs1" />
  <sodipodi:namedview
     id="namedview1"
     pagecolor="#ffffff"
     bordercolor="#000000"
     borderopacity="0.25"
     inkscape:showpageshadow="2"
     inkscape:pageopacity="0.0"
     inkscape:pagecheckerboard="0"
     inkscape:deskcolor="#d1d1d1"
     showgrid="false"
     inkscape:zoom="1.1328125"
     inkscape:cx="627.64138"
     inkscape:cy="468.74483"
     inkscape:window-width="2560"
     inkscape:window-height="1371"
     inkscape:window-x="0"
     inkscape:window-y="0"
     inkscape:window-maximized="1"
     inkscape:current-layer="g1" />
  <g
     inkscape:groupmode="layer"
     inkscape:label="Image"
     id="g1">
    <path
       style="fill:#293e52;fill-opacity:1;stroke:none;stroke-opacity:1"
       d="m 485.86696,934.14181 c -128.77676,-6.92434 -241.77607,-69.4663 -318.7228,-176.40415 -11.83861,-16.45289 -29.55339,-46.33095 -35.66995,-60.16157 -1.89994,-4.29611 -2.17625,-5.85445 -1.31049,-7.39116 0.60339,-1.071 3.209,-8.09946 5.79025,-15.6188 l 4.69319,-13.67154 3.73105,9.17154 c 4.98387,12.25118 19.71357,40.77399 27.45876,53.17153 7.97304,12.76225 20.33751,30.23111 30.43543,43 9.23016,11.67161 43.29088,46.07346 55.59456,56.15136 58.35712,47.80015 125.54024,76.64397 202.5,86.93962 16.37624,2.1908 64.43887,2.55977 81,0.62182 77.13717,-9.02644 141.24613,-35.352 203.5,-83.56478 13.4165,-10.39047 49.97896,-46.83659 61.34321,-61.14802 20.07315,-25.27888 34.82465,-48.67915 49.17112,-78 21.79638,-44.54673 33.8123,-85.88483 39.96772,-137.5 7.11052,-59.62405 -2.13534,-128.99549 -24.72354,-185.5 -6.25149,-15.63816 -19.66597,-42.73149 -28.22191,-57 -7.72635,-12.88505 -21.94529,-33.92297 -25.84943,-38.24606 -1.11561,-1.23533 -1.83912,-2.40166 -1.60778,-2.59185 0.23134,-0.19018 6.04561,0.23168 12.92061,0.93748 6.875,0.7058 13.4,1.31764 14.5,1.35964 2.30044,0.0878 9.05432,9.31295 19.79706,27.04079 45.46751,75.03116 65.52453,165.30585 56.22314,253.05486 -7.42981,70.09252 -29.59864,134.20116 -66.33672,191.83492 -14.42307,22.62654 -26.37247,37.90546 -48.02783,61.41006 -67.75638,73.54237 -158.324,119.3709 -257.18596,130.13984 -13.55143,1.47614 -48.88106,2.61448 -60.96969,1.96447 z m -385.29385,-228.039 c -7.240637,-14.41214 -14.257897,-35.79166 -18.172137,-55.36515 -8.12609,-40.63517 -7.54769,-73.38105 2.33157,-132 4.64205,-27.54376 4.7016,-28.04402 6.66606,-56 4.433,-63.08522 20.756807,-117.76865 50.747517,-170 56.2756,-98.00869 151.90114,-170.90152 260.86792,-198.852736 34.19346,-8.77101 61.80339,-12.26905 97.85292,-12.39747 51.13055,-0.18214 84.41207,5.08496 151,23.897106 51.91319,14.6663 62.99952,16.60742 104.59669,18.31398 28.9153,1.18628 44.64682,3.44329 60.40331,8.66611 25.51214,8.45653 43.86019,22.53371 54.05266,41.47085 5.55399,10.31907 9.26236,13.47887 27.46501,23.40216 8.07107,4.4 16.5439,9.63631 18.8285,11.63624 3.76587,3.29662 4.14511,4.05734 4.06043,8.14493 -0.26483,12.78355 -18.02349,27.84362 -39.96462,33.89164 -12.01758,3.31261 -36.79254,3.10154 -71.94198,-0.61293 -33.17416,-3.50572 -70.17343,-3.96372 -95,-1.17596 -14.09383,1.58258 -47.98435,7.06981 -62.52245,10.12303 -13.34619,2.8029 -55.7747,10.42453 -64.13537,11.52094 -14.24959,1.86866 -14.03394,2.2831 -5.73834,-11.02789 7.88484,-12.65191 10.30929,-15.94288 19.84066,-26.93193 6.97355,-8.04005 6.40144,-8.3852 -3.2144,-1.9392 -9.73223,6.52402 -23.92333,21.65872 -39.72941,42.37113 -15.4832,20.28929 -35.81062,42.13583 -49.50069,53.19999 -13.2953,10.74511 -28.09546,20.01622 -46,28.81529 -18.83196,9.25485 -32.01073,14.14653 -49.97491,18.54962 -19.58002,4.79914 -30.55934,3.60607 -28.79799,-3.12935 0.31828,-1.21707 6.02238,-7.66882 12.67579,-14.33722 16.94893,-16.98709 25.80389,-30.56911 36.57396,-56.09833 15.7663,-37.37219 28.26221,-51.0576 67.19181,-73.58786 10.87302,-6.29269 11.84749,-7.06588 8.23995,-6.53796 -8.48448,1.24161 -22.28594,5.88426 -32.90861,11.07008 -18.65339,9.1063 -33.1092,21.40628 -43.091,36.66475 l -4.32349,6.60901 -8.79275,0.69435 c -46.33855,3.65924 -90.03816,14.88671 -124.79276,32.06223 -59.61253,29.46016 -102.15797,75.42572 -126.60044,136.7775 -8.96119,22.49303 -13.12819,42.54175 -13.14567,63.2479 -0.0221,26.13459 7.15721,45.49579 28.83548,77.76396 14.75736,21.96637 20.73917,36.42802 23.46787,56.73604 1.01489,7.55316 0.64715,23.00081 -0.62656,26.32005 -0.25838,0.67332 -3.42139,-1.66949 -7.3439,-5.43952 -3.78953,-3.64222 -14.13664,-11.88301 -22.99357,-18.31287 -8.85694,-6.42985 -18.4113,-14.02547 -21.23191,-16.87915 -6.29161,-6.36537 -13.78754,-16.8727 -18.68288,-26.18851 l -3.67842,-7 -0.24336,7 c -0.87814,25.25936 -4.67001,47.56733 -11.74787,69.11409 -3.98944,12.14482 -13.28904,33.37871 -16.837,38.44414 -1.49717,2.13751 -1.56026,2.09467 -3.96562,-2.69308 z m 38.52777,-347.61515 c 12.73021,-26.46323 32.11607,-56.48657 52.1397,-80.75 56.43389,-68.38321 132.0887,-117.92753 217.62638,-142.51773 14.68789,-4.22245 38.50968,-9.66431 54.29632,-12.40348 27.24029,-4.72652 84.54424,-10.03502 109.12628,-10.1092 13.18913,-0.0398 10.92024,-1.29776 -6.99764,-3.87976 -26.95201,-3.88384 -36.00062,-4.55059 -61.42496,-4.52614 -61.70068,0.0593 -118.03186,13.4207 -173.40567,41.13062 -41.8298,20.93228 -74.46402,44.65699 -107.40939,78.08542 -29.23382,29.66247 -50.63309,59.42749 -69.89553,97.22027 -5.82144,11.42162 -17.5276,39.1098 -19.76522,46.75 -1.41642,4.83629 0.52853,1.77055 5.70973,-9 z M 843.36696,188.3792 c 5.70006,-1.50467 6.0652,-2.73353 2.4011,-8.08092 -3.0527,-4.45512 -7.31365,-6.85623 -12.3667,-6.9688 -11.03789,-0.24591 -13.08122,9.76877 -3.0344,14.87202 3.65897,1.85856 6.48613,1.89721 13,0.1777 z m -351.5,460.69293 c -24.42064,-2.41033 -47.91514,-10.88189 -69.25798,-24.97279 -8.57255,-5.65975 -26.26621,-22.99383 -33.54336,-32.86168 -11.15866,-15.13121 -20.76967,-37.58892 -24.83721,-58.03628 -2.39275,-12.02825 -2.44415,-38.32099 -0.0998,-51.02213 3.47884,-18.84709 10.6178,-36.38265 21.75679,-53.44159 7.5219,-11.5195 25.95924,-30.27369 37.1726,-37.81142 16.83575,-11.31715 36.33691,-19.27858 56.01976,-22.8703 12.85995,-2.34668 38.19308,-2.31645 50.25287,0.06 27.95838,5.50929 52.42127,18.0241 72.20818,36.94051 34.73934,33.21103 50.23613,80.57167 41.86304,127.94007 -10.58949,59.90705 -60.24578,107.14815 -121.14514,115.25287 -10.07286,1.34053 -21.89983,1.66074 -30.3898,0.82277 z m 29.75248,-18.84312 c 62.71981,-10.17214 108.45923,-64.99494 105.95063,-126.99135 -0.59329,-14.66241 -2.15001,-22.95997 -6.75404,-36 -6.54659,-18.54196 -15.98671,-33.6246 -29.34178,-46.87987 -13.73681,-13.63414 -29.4894,-23.41748 -48.18173,-29.92386 -44.39382,-15.45247 -92.7442,-3.90766 -127.48731,30.44067 -21.87842,21.62981 -35.92525,55.43521 -35.93506,86.48207 -0.0126,39.92377 21.66733,80.56217 54.78205,102.68735 25.9732,17.35366 58.2434,24.84354 86.96724,20.18499 z m -38.84382,-14.98385 c -21.5563,-4.07774 -41.2924,-14.90262 -57.1364,-31.33826 -9.82748,-10.19446 -15.59085,-18.37132 -20.83212,-29.55591 -23.17769,-49.4599 -6.94154,-107.6932 38.55986,-138.30046 16.91458,-11.37787 39.98942,-18.28948 61.11901,-18.30697 8.29121,-0.007 22.0487,2.17847 31.54101,5.0102 50.8011,15.1549 84.13782,67.39752 76.42362,119.76495 -3.73302,25.34141 -15.08012,47.15528 -33.66961,64.7271 -13.41346,12.67915 -28.39872,21.15949 -46.10761,26.09288 -7.86471,2.19097 -11.86253,2.65069 -25.80642,2.96755 -11.57542,0.26304 -18.7657,-0.0536 -24.09134,-1.06108 z m 35.53904,-52.03589 c 19.22376,-5.00716 35.99555,-21.94124 41.07415,-41.47161 2.39591,-9.21379 2.17918,-21.77875 -0.52609,-30.5 -10.04728,-32.39039 -43.94491,-48.8704 -75.87318,-36.88725 -7.82163,2.93558 -17.57688,9.76601 -23.029,16.12444 -9.14978,10.67077 -14.97235,28.56908 -13.58602,41.76281 0.81913,7.79563 4.83832,19.76477 8.62737,25.69226 7.06891,11.0584 21.76483,21.93571 34.13958,25.2687 7.03656,1.89521 21.91702,1.90064 29.17319,0.0107 z"
       id="path1"
       sodipodi:nodetypes="ssssscssssssssssssssssssssssssssssssssssssssssssssssssssssssscssssssssssscsssssssssssssssssssssssssssssssssssssssssssscssscssssscssssssssss" />
  </g>
</svg>
